{
  "accessors": [
    {
      "bufferView": 2,
      "componentType": 5126,
      "count": 451,
      "max": [
        0.32933276891708374,
        -0.06746886670589447,
        0.18504105508327484
      ],
      "min": [
        -0.336313933134079,
        -0.2596242427825928,
        0.0067726001143455505
      ],
      "type": "VEC3"
    },
    {
      "bufferView": 2,
      "byteOffset": 5412,
      "componentType": 5126,
      "count": 451,
      "max": [
        0.9761091470718384,
        0.9996717572212219,
        0.9911677241325378
      ],
      "min": [
        -0.994214653968811,
        -0.9998413324356079,
        -0.9992061257362366
      ],
      "type": "VEC3"
    },
    {
      "bufferView": 1,
      "componentType": 5126,
      "count": 451,
      "max": [
        0.8750001192092896,
        1.0000001192092896
      ],
      "min": [
        0.1250000149011612,
        0.0
      ],
      "type": "VEC2"
    },
    {
      "bufferView": 0,
      "componentType": 5125,
      "count": 2208,
      "type": "SCALAR"
    },
    {
      "bufferView": 2,
      "byteOffset": 10824,
      "componentType": 5126,
      "count": 2060,
      "max": [
        0.4948083758354187,
        0.5534042119979858,
        0.7041998505592346
      ],
      "min": [
        -0.5012379288673401,
        -0.24368134140968323,
        -0.37788280844688416
      ],
      "type": "VEC3"
    },
    {
      "bufferView": 2,
      "byteOffset": 35544,
      "componentType": 5126,
      "count": 2060,
      "max": [
        0.9997649788856506,
        0.9999929666519165,
        0.9999977350234985
      ],
      "min": [
        -0.9997650384902954,
        -0.9999698996543884,
        -0.9999997615814209
      ],
      "type": "VEC3"
    },
    {
      "bufferView": 1,
      "byteOffset": 3608,
      "componentType": 5126,
      "count": 2060,
      "max": [
        0.8750001192092896,
        1.0000001192092896
      ],
      "min": [
        0.125,
        0.0
      ],
      "type": "VEC2"
    },
    {
      "bufferView": 0,
      "byteOffset": 8832,
      "componentType": 5125,
      "count": 9888,
      "type": "SCALAR"
    },
    {
      "bufferView": 2,
      "byteOffset": 60264,
      "componentType": 5126,
      "count": 359,
      "max": [
        0.43762850761413574,
        0.3599824905395508,
        0.916042149066925
      ],
      "min": [
        -0.44405806064605713,
        -0.03669215738773346,
        0.13452930748462677
      ],
      "type": "VEC3"
    },
    {
      "bufferView": 2,
      "byteOffset": 64572,
      "componentType": 5126,
      "count": 359,
      "max": [
        0.9999769330024719,
        0.9999935626983643,
        0.9990100860595703
      ],
      "min": [
        -0.9999769926071167,
        -0.9999935626983643,
        -0.999999463558197
      ],
      "type": "VEC3"
    },
    {
      "bufferView": 1,
      "byteOffset": 20088,
      "componentType": 5126,
      "count": 359,
      "max": [
        0.8750001192092896,
        1.0000001192092896
      ],
      "min": [
        0.125,
        0.0
      ],
      "type": "VEC2"
    },
    {
      "bufferView": 0,
      "byteOffset": 48384,
      "componentType": 5125,
      "count": 1488,
      "type": "SCALAR"
    },
    {
      "bufferView": 2,
      "byteOffset": 68880,
      "componentType": 5126,
      "count": 104,
      "max": [
        0.30472150444984436,
        -0.1470606029033661,
        0.47322994470596313
      ],
      "min": [
        -0.2916892170906067,
        -0.2664640247821808,
        0.17648261785507202
      ],
      "type": "VEC3"
    },
    {
      "bufferView": 2,
      "byteOffset": 70128,
      "componentType": 5126,
      "count": 104,
      "max": [
        0.9926604628562927,
        0.8832070231437683,
        0.9073253870010376
      ],
      "min": [
        -0.9953527450561523,
        -0.9996291995048523,
        -0.8971532583236694
      ],
      "type": "VEC3"
    },
    {
      "bufferView": 1,
      "byteOffset": 22960,
      "componentType": 5126,
      "count": 104,
      "max": [
        0.0,
        0.0
      ],
      "min": [
        0.0,
        0.0
      ],
      "type": "VEC2"
    },
    {
      "bufferView": 0,
      "byteOffset": 54336,
      "componentType": 5125,
      "count": 534,
      "type": "SCALAR"
    },
    {
      "bufferView": 2,
      "byteOffset": 71376,
      "componentType": 5126,
      "count": 26,
      "max": [
        0.17342500388622284,
        -0.2413501888513565,
        0.3342965245246887
      ],
      "min": [
        -0.15771199762821198,
        -0.2664640247821808,
        0.282758891582489
      ],
      "type": "VEC3"
    },
    {
      "bufferView": 2,
      "byteOffset": 71688,
      "componentType": 5126,
      "count": 26,
      "max": [
        0.3407919704914093,
        -0.9401249885559082,
        0.09062262624502182
      ],
      "min": [
        -0.3080084025859833,
        -0.9996291995048523,
        -0.11622756719589233
      ],
      "type": "VEC3"
    },
    {
      "bufferView": 1,
      "byteOffset": 23792,
      "componentType": 5126,
      "count": 26,
      "max": [
        0.0,
        0.0
      ],
      "min": [
        0.0,
        0.0
      ],
      "type": "VEC2"
    },
    {
      "bufferView": 0,
      "byteOffset": 56472,
      "componentType": 5125,
      "count": 66,
      "type": "SCALAR"
    }
  ],
  "asset": {
    "extras": {
      "author": "LP (https://sketchfab.com/hectoryayayaju)",
      "license": "CC-BY-4.0 (http://creativecommons.org/licenses/by/4.0/)",
      "source": "https://sketchfab.com/3d-models/hangyodon-hello-kitty-low-poly-f9e3f4990b614b81a1f4ccdd56277971",
      "title": "Hangyodon Hello Kitty Low Poly"
    },
    "generator": "Sketchfab-16.58.0",
    "version": "2.0"
  },
  "bufferViews": [
    {
      "buffer": 0,
      "byteLength": 56736,
      "name": "floatBufferViews",
      "target": 34963
    },
    {
      "buffer": 0,
      "byteLength": 24000,
      "byteOffset": 56736,
      "byteStride": 8,
      "name": "floatBufferViews",
      "target": 34962
    },
    {
      "buffer": 0,
      "byteLength": 72000,
      "byteOffset": 80736,
      "byteStride": 12,
      "name": "floatBufferViews",
      "target": 34962
    }
  ],
  "buffers": [
    {
      "byteLength": 152736,
      "uri": "scene.bin"
    }
  ],
  "extensionsUsed": [
    "KHR_materials_specular"
  ],
  "materials": [
    {
      "doubleSided": true,
      "name": "Material.018",
      "pbrMetallicRoughness": {
        "baseColorFactor": [
          0.630757,
          0.27467699999999995,
          0.3467040000000001,
          1.0
        ],
        "metallicFactor": 0.0
      }
    },
    {
      "doubleSided": true,
      "name": "Material.017",
      "pbrMetallicRoughness": {
        "baseColorFactor": [
          0.0,
          0.462077,
          0.603827,
          1.0
        ],
        "metallicFactor": 0.0
      }
    },
    {
      "doubleSided": true,
      "name": "Material.019",
      "pbrMetallicRoughness": {
        "baseColorFactor": [
          0.0,
          0.346704,
          0.651406,
          1.0
        ],
        "metallicFactor": 0.0,
        "roughnessFactor": 0.934037288452688
      }
    },
    {
      "doubleSided": true,
      "name": "Material.021",
      "pbrMetallicRoughness": {
        "baseColorFactor": [
          0.8,
          0.8,
          0.8,
          1.0
        ],
        "metallicFactor": 0.0
      }
    },
    {
      "doubleSided": true,
      "extensions": {
        "KHR_materials_specular": {
          "specularColorFactor": [
            1.0,
            1.0,
            1.0
          ],
          "specularFactor": 0.0
        }
      },
      "name": "Material.020",
      "pbrMetallicRoughness": {
        "baseColorFactor": [
          0.0,
          0.0,
          0.0,
          1.0
        ],
        "metallicFactor": 0.0,
        "roughnessFactor": 0.8211145618000169
      }
    }
  ],
  "meshes": [
    {
      "name": "hangyodon_Material.018_0",
      "primitives": [
        {
          "attributes": {
            "NORMAL": 1,
            "POSITION": 0,
            "TEXCOORD_0": 2
          },
          "indices": 3,
          "material": 0,
          "mode": 4
        }
      ]
    },
    {
      "name": "hangyodon_Material.017_0",
      "primitives": [
        {
          "attributes": {
            "NORMAL": 5,
            "POSITION": 4,
            "TEXCOORD_0": 6
          },
          "indices": 7,
          "material": 1,
          "mode": 4
        }
      ]
    },
    {
      "name": "hangyodon_Material.019_0",
      "primitives": [
        {
          "attributes": {
            "NORMAL": 9,
            "POSITION": 8,
            "TEXCOORD_0": 10
          },
          "indices": 11,
          "material": 2,
          "mode": 4
        }
      ]
    },
    {
      "name": "hangyodon_Material.021_0",
      "primitives": [
        {
          "attributes": {
            "NORMAL": 13,
            "POSITION": 12,
            "TEXCOORD_0": 14
          },
          "indices": 15,
          "material": 3,
          "mode": 4
        }
      ]
    },
    {
      "name": "hangyodon_Material.020_0",
      "primitives": [
        {
          "attributes": {
            "NORMAL": 17,
            "POSITION": 16,
            "TEXCOORD_0": 18
          },
          "indices": 19,
          "material": 4,
          "mode": 4
        }
      ]
    }
  ],
  "nodes": [
    {
      "children": [
        1
      ],
      "matrix": [
        1.0,
        0.0,
        0.0,
        0.0,
        0.0,
        2.220446049250313e-16,
        -1.0,
        0.0,
        0.0,
        1.0,
        2.220446049250313e-16,
        0.0,
        0.0,
        0.0,
        0.0,
        1.0
      ],
      "name": "Sketchfab_model"
    },
    {
      "children": [
        2
      ],
      "matrix": [
        0.009999999776482582,
        0.0,
        0.0,
        0.0,
        0.0,
        0.0,
        0.009999999776482582,
        0.0,
        0.0,
        -0.009999999776482582,
        0.0,
        0.0,
        0.0,
        0.0,
        0.0,
        1.0
      ],
      "name": "9d73197689c44e32b0f15d223ade52d4.fbx"
    },
    {
      "children": [
        3
      ],
      "name": "RootNode"
    },
    {
      "children": [
        4,
        5,
        6,
        7,
        8
      ],
      "matrix": [
        100.0,
        0.0,
        0.0,
        0.0,
        0.0,
        -1.629206793918314e-05,
        -99.99999999999868,
        0.0,
        0.0,
        99.99999999999868,
        -1.629206793918314e-05,
        0.0,
        0.0,
        32.73649978637695,
        0.0,
        1.0
      ],
      "name": "hangyodon"
    },
    {
      "mesh": 0,
      "name": "hangyodon_Material.018_0"
    },
    {
      "mesh": 1,
      "name": "hangyodon_Material.017_0"
    },
    {
      "mesh": 2,
      "name": "hangyodon_Material.019_0"
    },
    {
      "mesh": 3,
      "name": "hangyodon_Material.021_0"
    },
    {
      "mesh": 4,
      "name": "hangyodon_Material.020_0"
    }
  ],
  "scene": 0,
  "scenes": [
    {
      "name": "Sketchfab_Scene",
      "nodes": [
        0
      ]
    }
  ]
}
