{
  "accessors": [
    {
      "bufferView": 2,
      "componentType": 5126,
      "count": 32961,
      "max": [
        2.331024169921875,
        11.639592170715332,
        3.3499999046325684
      ],
      "min": [
        2.063936710357666,
        -11.62596321105957,
        -1.5697310118412133e-07
      ],
      "type": "VEC3"
    },
    {
      "bufferView": 2,
      "byteOffset": 395532,
      "componentType": 5126,
      "count": 32961,
      "max": [
        1.0,
        1.0,
        1.0
      ],
      "min": [
        -1.0,
        -1.0,
        -1.0
      ],
      "type": "VEC3"
    },
    {
      "bufferView": 1,
      "componentType": 5126,
      "count": 32961,
      "max": [
        0.9999154210090637,
        0.9997887015342712
      ],
      "min": [
        0.00021126767387613654,
        0.00021125658531673253
      ],
      "type": "VEC2"
    },
    {
      "bufferView": 0,
      "componentType": 5125,
      "count": 62217,
      "type": "SCALAR"
    },
    {
      "bufferView": 2,
      "byteOffset": 791064,
      "componentType": 5126,
      "count": 2100,
      "max": [
        -2.07820987701416,
        11.639592170715332,
        3.3499999046325684
      ],
      "min": [
        -2.337836742401123,
        -11.62596321105957,
        -1.4195970621244669e-08
      ],
      "type": "VEC3"
    },
    {
      "bufferView": 2,
      "byteOffset": 816264,
      "componentType": 5126,
      "count": 2100,
      "max": [
        1.0,
        1.0,
        1.0
      ],
      "min": [
        -0.8314869403839111,
        -1.0,
        -1.0
      ],
      "type": "VEC3"
    },
    {
      "bufferView": 3,
      "componentType": 5126,
      "count": 2100,
      "max": [
        1.0,
        1.0,
        1.0,
        1.0
      ],
      "min": [
        -1.0,
        -1.0,
        -1.0,
        -1.0
      ],
      "type": "VEC4"
    },
    {
      "bufferView": 1,
      "byteOffset": 263688,
      "componentType": 5126,
      "count": 2100,
      "max": [
        0.9672566056251526,
        0.9996961951255798
      ],
      "min": [
        0.00030378196970559657,
        0.00030377160874195397
      ],
      "type": "VEC2"
    },
    {
      "bufferView": 0,
      "byteOffset": 248868,
      "componentType": 5125,
      "count": 5202,
      "type": "SCALAR"
    },
    {
      "bufferView": 2,
      "byteOffset": 841464,
      "componentType": 5126,
      "count": 12,
      "max": [
        2.1423699855804443,
        11.639591217041016,
        0.0
      ],
      "min": [
        -2.322089910507202,
        -11.62596321105957,
        0.0
      ],
      "type": "VEC3"
    },
    {
      "bufferView": 2,
      "byteOffset": 841608,
      "componentType": 5126,
      "count": 12,
      "max": [
        0.0,
        0.0,
        1.0
      ],
      "min": [
        0.0,
        0.0,
        1.0
      ],
      "type": "VEC3"
    },
    {
      "bufferView": 3,
      "byteOffset": 33600,
      "componentType": 5126,
      "count": 12,
      "max": [
        -1.0,
        1.0682605733336459e-07,
        0.0,
        1.0
      ],
      "min": [
        -1.0,
        1.0355688573326916e-07,
        0.0,
        1.0
      ],
      "type": "VEC4"
    },
    {
      "bufferView": 1,
      "byteOffset": 280488,
      "componentType": 5126,
      "count": 12,
      "max": [
        0.5756605863571167,
        0.9999130368232727
      ],
      "min": [
        8.698923920746893e-05,
        8.702855848241597e-05
      ],
      "type": "VEC2"
    },
    {
      "bufferView": 0,
      "byteOffset": 269676,
      "componentType": 5125,
      "count": 18,
      "type": "SCALAR"
    },
    {
      "bufferView": 2,
      "byteOffset": 841752,
      "componentType": 5126,
      "count": 5193,
      "max": [
        2.321024179458618,
        11.6395902633667,
        3.349993944168091
      ],
      "min": [
        -2.3320870399475098,
        -11.62596321105957,
        2.9046084880828857
      ],
      "type": "VEC3"
    },
    {
      "bufferView": 2,
      "byteOffset": 904068,
      "componentType": 5126,
      "count": 5193,
      "max": [
        1.0,
        1.0,
        1.0
      ],
      "min": [
        -1.0,
        -1.0,
        -1.0
      ],
      "type": "VEC3"
    },
    {
      "bufferView": 1,
      "byteOffset": 280584,
      "componentType": 5126,
      "count": 5193,
      "max": [
        0.9998944401741028,
        1.000109314918518
      ],
      "min": [
        0.00010549904254730791,
        0.0002584726898930967
      ],
      "type": "VEC2"
    },
    {
      "bufferView": 0,
      "byteOffset": 269748,
      "componentType": 5125,
      "count": 9990,
      "type": "SCALAR"
    },
    {
      "bufferView": 2,
      "byteOffset": 966384,
      "componentType": 5126,
      "count": 1654,
      "max": [
        2.3310201168060303,
        18.5,
        3.3499999046325684
      ],
      "min": [
        -2.331026077270508,
        -18.5,
        0.0
      ],
      "type": "VEC3"
    },
    {
      "bufferView": 2,
      "byteOffset": 986232,
      "componentType": 5126,
      "count": 1654,
      "max": [
        1.0,
        1.0,
        1.0
      ],
      "min": [
        -1.0,
        -1.0,
        -1.0
      ],
      "type": "VEC3"
    },
    {
      "bufferView": 3,
      "byteOffset": 33792,
      "componentType": 5126,
      "count": 1654,
      "max": [
        1.0,
        1.0,
        1.0,
        1.0
      ],
      "min": [
        -1.0,
        -1.0,
        -1.0,
        -1.0
      ],
      "type": "VEC4"
    },
    {
      "bufferView": 1,
      "byteOffset": 322128,
      "componentType": 5126,
      "count": 1654,
      "max": [
        0.9998551607131958,
        0.9998843669891357
      ],
      "min": [
        0.00020604208111763,
        0.00022659171372652054
      ],
      "type": "VEC2"
    },
    {
      "bufferView": 0,
      "byteOffset": 309708,
      "componentType": 5125,
      "count": 2562,
      "type": "SCALAR"
    }
  ],
  "asset": {
    "extras": {
      "author": "volvor (https://sketchfab.com/volvor)",
      "license": "CC-BY-4.0 (http://creativecommons.org/licenses/by/4.0/)",
      "source": "https://sketchfab.com/3d-models/the-japanese-school-corridor-f7775fea6fc34f518424ef9cad55c926",
      "title": "The Japanese School Corridor"
    },
    "generator": "Sketchfab-15.83.0",
    "version": "2.0"
  },
  "bufferViews": [
    {
      "buffer": 0,
      "byteLength": 319956,
      "name": "floatBufferViews",
      "target": 34963
    },
    {
      "buffer": 0,
      "byteLength": 335360,
      "byteOffset": 319956,
      "byteStride": 8,
      "name": "floatBufferViews",
      "target": 34962
    },
    {
      "buffer": 0,
      "byteLength": 1006080,
      "byteOffset": 655316,
      "byteStride": 12,
      "name": "floatBufferViews",
      "target": 34962
    },
    {
      "buffer": 0,
      "byteLength": 60256,
      "byteOffset": 1661396,
      "byteStride": 16,
      "name": "floatBufferViews",
      "target": 34962
    }
  ],
  "buffers": [
    {
      "byteLength": 1721652,
      "uri": "scene.bin"
    }
  ],
  "extensionsUsed": [
    "KHR_materials_emissive_strength"
  ],
  "images": [
    {
      "uri": "textures/Windows_baseColor.png"
    },
    {
      "uri": "textures/Windows_metallicRoughness.png"
    },
    {
      "uri": "textures/Wall_baseColor.png"
    },
    {
      "uri": "textures/Wall_metallicRoughness.png"
    },
    {
      "uri": "textures/Wall_normal.png"
    },
    {
      "uri": "textures/Floor_baseColor.png"
    },
    {
      "uri": "textures/Floor_metallicRoughness.png"
    },
    {
      "uri": "textures/Floor_normal.png"
    },
    {
      "uri": "textures/Roof_baseColor.png"
    },
    {
      "uri": "textures/Roof_metallicRoughness.png"
    },
    {
      "uri": "textures/Roof_emissive.png"
    },
    {
      "uri": "textures/Ladder_baseColor.png"
    },
    {
      "uri": "textures/Ladder_metallicRoughness.png"
    }
  ],
  "materials": [
    {
      "alphaMode": "BLEND",
      "doubleSided": true,
      "name": "Windows",
      "pbrMetallicRoughness": {
        "baseColorTexture": {
          "index": 0
        },
        "metallicRoughnessTexture": {
          "index": 1
        }
      }
    },
    {
      "doubleSided": true,
      "name": "Wall",
      "normalTexture": {
        "index": 4
      },
      "pbrMetallicRoughness": {
        "baseColorTexture": {
          "index": 2
        },
        "metallicRoughnessTexture": {
          "index": 3
        }
      }
    },
    {
      "doubleSided": true,
      "name": "Floor",
      "normalTexture": {
        "index": 7
      },
      "pbrMetallicRoughness": {
        "baseColorTexture": {
          "index": 5
        },
        "metallicFactor": 0.0,
        "metallicRoughnessTexture": {
          "index": 6
        }
      }
    },
    {
      "doubleSided": true,
      "emissiveFactor": [
        1.0,
        1.0,
        1.0
      ],
      "emissiveTexture": {
        "index": 10
      },
      "extensions": {
        "KHR_materials_emissive_strength": {
          "emissiveStrength": 10.0
        }
      },
      "name": "Roof",
      "pbrMetallicRoughness": {
        "baseColorTexture": {
          "index": 8
        },
        "metallicRoughnessTexture": {
          "index": 9
        }
      }
    },
    {
      "doubleSided": true,
      "name": "Ladder",
      "normalTexture": {
        "index": 4
      },
      "pbrMetallicRoughness": {
        "baseColorTexture": {
          "index": 11
        },
        "metallicRoughnessTexture": {
          "index": 12
        }
      }
    }
  ],
  "meshes": [
    {
      "name": "The Japanese school corridor_Windows_0",
      "primitives": [
        {
          "attributes": {
            "NORMAL": 1,
            "POSITION": 0,
            "TEXCOORD_0": 2
          },
          "indices": 3,
          "material": 0,
          "mode": 4
        }
      ]
    },
    {
      "name": "The Japanese school corridor_Wall_0",
      "primitives": [
        {
          "attributes": {
            "NORMAL": 5,
            "POSITION": 4,
            "TANGENT": 6,
            "TEXCOORD_0": 7
          },
          "indices": 8,
          "material": 1,
          "mode": 4
        }
      ]
    },
    {
      "name": "The Japanese school corridor_Floor_0",
      "primitives": [
        {
          "attributes": {
            "NORMAL": 10,
            "POSITION": 9,
            "TANGENT": 11,
            "TEXCOORD_0": 12
          },
          "indices": 13,
          "material": 2,
          "mode": 4
        }
      ]
    },
    {
      "name": "The Japanese school corridor_Roof_0",
      "primitives": [
        {
          "attributes": {
            "NORMAL": 15,
            "POSITION": 14,
            "TEXCOORD_0": 16
          },
          "indices": 17,
          "material": 3,
          "mode": 4
        }
      ]
    },
    {
      "name": "The Japanese school corridor_Ladder_0",
      "primitives": [
        {
          "attributes": {
            "NORMAL": 19,
            "POSITION": 18,
            "TANGENT": 20,
            "TEXCOORD_0": 21
          },
          "indices": 22,
          "material": 4,
          "mode": 4
        }
      ]
    }
  ],
  "nodes": [
    {
      "children": [
        1
      ],
      "matrix": [
        1.0,
        0.0,
        0.0,
        0.0,
        0.0,
        2.220446049250313e-16,
        -1.0,
        0.0,
        0.0,
        1.0,
        2.220446049250313e-16,
        0.0,
        0.0,
        0.0,
        0.0,
        1.0
      ],
      "name": "Sketchfab_model"
    },
    {
      "children": [
        2
      ],
      "matrix": [
        0.009999999776482582,
        0.0,
        0.0,
        0.0,
        0.0,
        0.0,
        0.009999999776482582,
        0.0,
        0.0,
        -0.009999999776482582,
        0.0,
        0.0,
        0.0,
        0.0,
        0.0,
        1.0
      ],
      "name": "The Japanese school corridor.fbx"
    },
    {
      "children": [
        3
      ],
      "name": "RootNode"
    },
    {
      "children": [
        4,
        5,
        6,
        7,
        8
      ],
      "matrix": [
        100.0,
        0.0,
        0.0,
        0.0,
        0.0,
        -1.629206793918314e-05,
        -99.99999999999868,
        0.0,
        0.0,
        99.99999999999868,
        -1.629206793918314e-05,
        0.0,
        0.0,
        0.0,
        0.0,
        1.0
      ],
      "name": "The Japanese school corridor"
    },
    {
      "mesh": 0,
      "name": "The Japanese school corridor_Windows_0"
    },
    {
      "mesh": 1,
      "name": "The Japanese school corridor_Wall_0"
    },
    {
      "mesh": 2,
      "name": "The Japanese school corridor_Floor_0"
    },
    {
      "mesh": 3,
      "name": "The Japanese school corridor_Roof_0"
    },
    {
      "mesh": 4,
      "name": "The Japanese school corridor_Ladder_0"
    }
  ],
  "samplers": [
    {
      "magFilter": 9729,
      "minFilter": 9987,
      "wrapS": 10497,
      "wrapT": 10497
    }
  ],
  "scene": 0,
  "scenes": [
    {
      "name": "Sketchfab_Scene",
      "nodes": [
        0
      ]
    }
  ],
  "textures": [
    {
      "sampler": 0,
      "source": 0
    },
    {
      "sampler": 0,
      "source": 1
    },
    {
      "sampler": 0,
      "source": 2
    },
    {
      "sampler": 0,
      "source": 3
    },
    {
      "sampler": 0,
      "source": 4
    },
    {
      "sampler": 0,
      "source": 5
    },
    {
      "sampler": 0,
      "source": 6
    },
    {
      "sampler": 0,
      "source": 7
    },
    {
      "sampler": 0,
      "source": 8
    },
    {
      "sampler": 0,
      "source": 9
    },
    {
      "sampler": 0,
      "source": 10
    },
    {
      "sampler": 0,
      "source": 11
    },
    {
      "sampler": 0,
      "source": 12
    }
  ]
}
