{
  "accessors": [
    {
      "bufferView": 2,
      "componentType": 5126,
      "count": 154,
      "max": [
        83.27100372314453,
        52.93299865722656,
        101.09700012207031
      ],
      "min": [
        -306.3210144042969,
        -52.143001556396484,
        1.465999960899353
      ],
      "type": "VEC3"
    },
    {
      "bufferView": 2,
      "byteOffset": 1848,
      "componentType": 5126,
      "count": 154,
      "max": [
        1.0,
        1.0,
        1.0
      ],
      "min": [
        -1.0,
        -1.0,
        -1.0
      ],
      "type": "VEC3"
    },
    {
      "bufferView": 1,
      "componentType": 5126,
      "count": 154,
      "max": [
        4.627930164337158,
        1.7534600496292114
      ],
      "min": [
        -3.7201199531555176,
        -0.498089998960495
      ],
      "type": "VEC2"
    },
    {
      "bufferView": 0,
      "componentType": 5125,
      "count": 264,
      "type": "SCALAR"
    },
    {
      "bufferView": 2,
      "byteOffset": 3696,
      "componentType": 5126,
      "count": 96,
      "max": [
        -1.7369999885559082,
        -52.22200012207031,
        86.33100128173828
      ],
      "min": [
        -87.43199920654297,
        -54.694000244140625,
        1.902999997138977
      ],
      "type": "VEC3"
    },
    {
      "bufferView": 2,
      "byteOffset": 4848,
      "componentType": 5126,
      "count": 96,
      "max": [
        1.0,
        1.0,
        1.0
      ],
      "min": [
        -1.0,
        -1.0,
        -1.0
      ],
      "type": "VEC3"
    },
    {
      "bufferView": 0,
      "byteOffset": 1056,
      "componentType": 5125,
      "count": 132,
      "type": "SCALAR"
    },
    {
      "bufferView": 2,
      "byteOffset": 6000,
      "componentType": 5126,
      "count": 72,
      "max": [
        92.43199920654297,
        64.82099914550781,
        293.62298583984375
      ],
      "min": [
        -11.319999694824219,
        -62.85499954223633,
        236.0989990234375
      ],
      "type": "VEC3"
    },
    {
      "bufferView": 2,
      "byteOffset": 6864,
      "componentType": 5126,
      "count": 72,
      "max": [
        1.0,
        0.668653666973114,
        0.7435740828514099
      ],
      "min": [
        -1.0,
        -0.668653666973114,
        -0.9999858140945435
      ],
      "type": "VEC3"
    },
    {
      "bufferView": 0,
      "byteOffset": 1584,
      "componentType": 5125,
      "count": 120,
      "type": "SCALAR"
    },
    {
      "bufferView": 2,
      "byteOffset": 7728,
      "componentType": 5126,
      "count": 714,
      "max": [
        281.29901123046875,
        53.316001892089844,
        129.91700744628906
      ],
      "min": [
        74.74500274658203,
        -51.3489990234375,
        1.4320000410079956
      ],
      "type": "VEC3"
    },
    {
      "bufferView": 2,
      "byteOffset": 16296,
      "componentType": 5126,
      "count": 714,
      "max": [
        0.9999740719795227,
        0.9994482398033142,
        1.0
      ],
      "min": [
        -0.9999614357948303,
        -0.9994482398033142,
        -1.0
      ],
      "type": "VEC3"
    },
    {
      "bufferView": 0,
      "byteOffset": 2064,
      "componentType": 5125,
      "count": 4272,
      "type": "SCALAR"
    },
    {
      "bufferView": 2,
      "byteOffset": 24864,
      "componentType": 5126,
      "count": 2912,
      "max": [
        83.37799835205078,
        -52.229000091552734,
        179.60499572753906
      ],
      "min": [
        -81.61399841308594,
        -59.483001708984375,
        13.152000427246094
      ],
      "type": "VEC3"
    },
    {
      "bufferView": 2,
      "byteOffset": 59808,
      "componentType": 5126,
      "count": 2912,
      "max": [
        1.0,
        1.0,
        1.0
      ],
      "min": [
        -1.0,
        -1.0,
        -1.0
      ],
      "type": "VEC3"
    },
    {
      "bufferView": 0,
      "byteOffset": 19152,
      "componentType": 5125,
      "count": 17472,
      "type": "SCALAR"
    },
    {
      "bufferView": 2,
      "byteOffset": 94752,
      "componentType": 5126,
      "count": 2912,
      "max": [
        -1.9759999513626099,
        55.909000396728516,
        165.63299560546875
      ],
      "min": [
        -87.6709976196289,
        -59.483001708984375,
        14.529000282287598
      ],
      "type": "VEC3"
    },
    {
      "bufferView": 2,
      "byteOffset": 129696,
      "componentType": 5126,
      "count": 2912,
      "max": [
        1.0,
        1.0,
        1.0
      ],
      "min": [
        -1.0,
        -1.0,
        -1.0
      ],
      "type": "VEC3"
    },
    {
      "bufferView": 0,
      "byteOffset": 89040,
      "componentType": 5125,
      "count": 17472,
      "type": "SCALAR"
    },
    {
      "bufferView": 2,
      "byteOffset": 164640,
      "componentType": 5126,
      "count": 810,
      "max": [
        96.24600219726563,
        71.91500091552734,
        297.375
      ],
      "min": [
        -81.22100067138672,
        -69.947998046875,
        21.018999099731445
      ],
      "type": "VEC3"
    },
    {
      "bufferView": 2,
      "byteOffset": 174360,
      "componentType": 5126,
      "count": 810,
      "max": [
        1.0,
        1.0,
        1.0
      ],
      "min": [
        -1.0,
        -1.0,
        -1.0
      ],
      "type": "VEC3"
    },
    {
      "bufferView": 0,
      "byteOffset": 158928,
      "componentType": 5125,
      "count": 4668,
      "type": "SCALAR"
    },
    {
      "bufferView": 2,
      "byteOffset": 184080,
      "componentType": 5126,
      "count": 160,
      "max": [
        -81.40299987792969,
        54.50299835205078,
        180.0260009765625
      ],
      "min": [
        -94.38400268554688,
        -53.28200149536133,
        171.25999450683594
      ],
      "type": "VEC3"
    },
    {
      "bufferView": 2,
      "byteOffset": 186000,
      "componentType": 5126,
      "count": 160,
      "max": [
        1.0,
        1.0,
        1.0
      ],
      "min": [
        -1.0,
        -1.0,
        -1.0
      ],
      "type": "VEC3"
    },
    {
      "bufferView": 1,
      "byteOffset": 1232,
      "componentType": 5126,
      "count": 160,
      "max": [
        0.0,
        0.0
      ],
      "min": [
        0.0,
        0.0
      ],
      "type": "VEC2"
    },
    {
      "bufferView": 0,
      "byteOffset": 177600,
      "componentType": 5125,
      "count": 276,
      "type": "SCALAR"
    },
    {
      "bufferView": 2,
      "byteOffset": 187920,
      "componentType": 5126,
      "count": 400,
      "max": [
        85.85800170898438,
        50.67900085449219,
        205.1909942626953
      ],
      "min": [
        -90.03800201416016,
        -49.33300018310547,
        23.520999908447266
      ],
      "type": "VEC3"
    },
    {
      "bufferView": 2,
      "byteOffset": 192720,
      "componentType": 5126,
      "count": 400,
      "max": [
        0.9876916408538818,
        0.9876916408538818,
        0.9876916408538818
      ],
      "min": [
        -0.9876916408538818,
        -0.9876916408538818,
        -0.9876916408538818
      ],
      "type": "VEC3"
    },
    {
      "bufferView": 0,
      "byteOffset": 178704,
      "componentType": 5125,
      "count": 1200,
      "type": "SCALAR"
    },
    {
      "bufferView": 2,
      "byteOffset": 197520,
      "componentType": 5126,
      "count": 666,
      "max": [
        -100.52300262451172,
        43.21099853515625,
        82.1449966430664
      ],
      "min": [
        -314.0090026855469,
        -41.24399948120117,
        1.5609999895095825
      ],
      "type": "VEC3"
    },
    {
      "bufferView": 2,
      "byteOffset": 205512,
      "componentType": 5126,
      "count": 666,
      "max": [
        0.3741493821144104,
        1.0,
        1.0
      ],
      "min": [
        -1.0,
        -1.0,
        -1.0
      ],
      "type": "VEC3"
    },
    {
      "bufferView": 1,
      "byteOffset": 2512,
      "componentType": 5126,
      "count": 666,
      "max": [
        1.4118399620056152,
        1.4969300031661987
      ],
      "min": [
        -0.3723999857902527,
        -0.5230900049209595
      ],
      "type": "VEC2"
    },
    {
      "bufferView": 0,
      "byteOffset": 183504,
      "componentType": 5125,
      "count": 1056,
      "type": "SCALAR"
    },
    {
      "bufferView": 2,
      "byteOffset": 213504,
      "componentType": 5126,
      "count": 384,
      "max": [
        -82.61199951171875,
        53.29399871826172,
        173.71200561523438
      ],
      "min": [
        -320.75799560546875,
        -52.071998596191406,
        1.465999960899353
      ],
      "type": "VEC3"
    },
    {
      "bufferView": 2,
      "byteOffset": 218112,
      "componentType": 5126,
      "count": 384,
      "max": [
        1.0,
        1.0,
        1.0
      ],
      "min": [
        -1.0,
        -1.0,
        -1.0
      ],
      "type": "VEC3"
    },
    {
      "bufferView": 1,
      "byteOffset": 7840,
      "componentType": 5126,
      "count": 384,
      "max": [
        3.383080005645752,
        6.083079814910889
      ],
      "min": [
        -2.8897500038146973,
        -4.494259834289551
      ],
      "type": "VEC2"
    },
    {
      "bufferView": 0,
      "byteOffset": 187728,
      "componentType": 5125,
      "count": 528,
      "type": "SCALAR"
    },
    {
      "bufferView": 2,
      "byteOffset": 222720,
      "componentType": 5126,
      "count": 384,
      "max": [
        88.93199920654297,
        53.29399871826172,
        245.12399291992188
      ],
      "min": [
        -7.876999855041504,
        -52.071998596191406,
        1.465999960899353
      ],
      "type": "VEC3"
    },
    {
      "bufferView": 2,
      "byteOffset": 227328,
      "componentType": 5126,
      "count": 384,
      "max": [
        1.0,
        1.0,
        1.0
      ],
      "min": [
        -1.0,
        -1.0,
        -1.0
      ],
      "type": "VEC3"
    },
    {
      "bufferView": 1,
      "byteOffset": 10912,
      "componentType": 5126,
      "count": 384,
      "max": [
        0.6183800101280212,
        6.003550052642822
      ],
      "min": [
        0.41220998764038086,
        -4.708380222320557
      ],
      "type": "VEC2"
    },
    {
      "bufferView": 0,
      "byteOffset": 189840,
      "componentType": 5125,
      "count": 528,
      "type": "SCALAR"
    }
  ],
  "asset": {
    "extras": {
      "author": "1-3D.com (https://sketchfab.com/1-3D.com)",
      "license": "CC-BY-SA-4.0 (http://creativecommons.org/licenses/by-sa/4.0/)",
      "source": "https://sketchfab.com/3d-models/children-game-2c86636a25774fdbab866110b7afcf64",
      "title": "Children game"
    },
    "generator": "Sketchfab-12.78.0",
    "version": "2.0"
  },
  "bufferViews": [
    {
      "buffer": 0,
      "byteLength": 191952,
      "name": "floatBufferViews",
      "target": 34963
    },
    {
      "buffer": 0,
      "byteLength": 13984,
      "byteOffset": 191952,
      "byteStride": 8,
      "name": "floatBufferViews",
      "target": 34962
    },
    {
      "buffer": 0,
      "byteLength": 231936,
      "byteOffset": 205936,
      "byteStride": 12,
      "name": "floatBufferViews",
      "target": 34962
    }
  ],
  "buffers": [
    {
      "byteLength": 437872,
      "uri": "scene.bin"
    }
  ],
  "images": [
    {
      "uri": "textures/darkbrown_baseColor.jpeg"
    },
    {
      "uri": "textures/wood1_baseColor.jpeg"
    },
    {
      "uri": "textures/wood2_baseColor.jpeg"
    }
  ],
  "materials": [
    {
      "doubleSided": true,
      "name": "blue",
      "pbrMetallicRoughness": {
        "baseColorFactor": [
          0.139424,
          0.252193,
          0.843871,
          1.0
        ],
        "metallicFactor": 0.0
      }
    },
    {
      "doubleSided": true,
      "name": "darkbrown",
      "pbrMetallicRoughness": {
        "baseColorTexture": {
          "index": 0
        },
        "metallicFactor": 0.0
      }
    },
    {
      "doubleSided": true,
      "name": "green",
      "pbrMetallicRoughness": {
        "baseColorFactor": [
          0.24918,
          0.509501,
          0.067559,
          1.0
        ],
        "metallicFactor": 0.0
      }
    },
    {
      "doubleSided": true,
      "name": "orange",
      "pbrMetallicRoughness": {
        "baseColorFactor": [
          0.926392,
          0.838342,
          0.066185,
          1.0
        ],
        "metallicFactor": 0.0
      }
    },
    {
      "doubleSided": true,
      "name": "purple",
      "pbrMetallicRoughness": {
        "baseColorFactor": [
          0.827451,
          0.152941,
          0.145098,
          1.0
        ],
        "metallicFactor": 0.0
      }
    },
    {
      "doubleSided": true,
      "name": "material",
      "pbrMetallicRoughness": {
        "baseColorFactor": [
          0.827451,
          0.152941,
          0.145098,
          1.0
        ],
        "metallicFactor": 0.0
      }
    },
    {
      "doubleSided": true,
      "name": "red_tap",
      "pbrMetallicRoughness": {
        "baseColorFactor": [
          0.884647,
          0.187874,
          0.045157,
          1.0
        ],
        "metallicFactor": 0.0
      }
    },
    {
      "doubleSided": true,
      "name": "white",
      "pbrMetallicRoughness": {
        "metallicFactor": 0.0,
        "roughnessFactor": 0.9974596957501652
      }
    },
    {
      "doubleSided": true,
      "name": "wood1",
      "pbrMetallicRoughness": {
        "baseColorTexture": {
          "index": 1
        },
        "metallicFactor": 0.0
      }
    },
    {
      "doubleSided": true,
      "name": "wood2",
      "pbrMetallicRoughness": {
        "baseColorTexture": {
          "index": 2
        },
        "metallicFactor": 0.0
      }
    },
    {
      "doubleSided": true,
      "name": "wood3",
      "pbrMetallicRoughness": {
        "baseColorTexture": {
          "index": 2
        },
        "metallicFactor": 0.0
      }
    },
    {
      "doubleSided": true,
      "name": "yellow",
      "pbrMetallicRoughness": {
        "baseColorFactor": [
          0.890539,
          0.917269,
          0.390932,
          1.0
        ],
        "metallicFactor": 0.0,
        "roughnessFactor": 0.9942334464464261
      }
    }
  ],
  "meshes": [
    {
      "name": "Object_0",
      "primitives": [
        {
          "attributes": {
            "NORMAL": 1,
            "POSITION": 0,
            "TEXCOORD_0": 2
          },
          "indices": 3,
          "material": 1,
          "mode": 4
        }
      ]
    },
    {
      "name": "Object_1",
      "primitives": [
        {
          "attributes": {
            "NORMAL": 5,
            "POSITION": 4
          },
          "indices": 6,
          "material": 2,
          "mode": 4
        }
      ]
    },
    {
      "name": "Object_2",
      "primitives": [
        {
          "attributes": {
            "NORMAL": 8,
            "POSITION": 7
          },
          "indices": 9,
          "material": 4,
          "mode": 4
        }
      ]
    },
    {
      "name": "Object_3",
      "primitives": [
        {
          "attributes": {
            "NORMAL": 11,
            "POSITION": 10
          },
          "indices": 12,
          "material": 11,
          "mode": 4
        }
      ]
    },
    {
      "name": "Object_4",
      "primitives": [
        {
          "attributes": {
            "NORMAL": 14,
            "POSITION": 13
          },
          "indices": 15,
          "material": 0,
          "mode": 4
        }
      ]
    },
    {
      "name": "Object_5",
      "primitives": [
        {
          "attributes": {
            "NORMAL": 17,
            "POSITION": 16
          },
          "indices": 18,
          "material": 3,
          "mode": 4
        }
      ]
    },
    {
      "name": "Object_6",
      "primitives": [
        {
          "attributes": {
            "NORMAL": 20,
            "POSITION": 19
          },
          "indices": 21,
          "material": 5,
          "mode": 4
        }
      ]
    },
    {
      "name": "Object_7",
      "primitives": [
        {
          "attributes": {
            "NORMAL": 23,
            "POSITION": 22,
            "TEXCOORD_0": 24
          },
          "indices": 25,
          "material": 6,
          "mode": 4
        }
      ]
    },
    {
      "name": "Object_8",
      "primitives": [
        {
          "attributes": {
            "NORMAL": 27,
            "POSITION": 26
          },
          "indices": 28,
          "material": 7,
          "mode": 4
        }
      ]
    },
    {
      "name": "Object_9",
      "primitives": [
        {
          "attributes": {
            "NORMAL": 30,
            "POSITION": 29,
            "TEXCOORD_0": 31
          },
          "indices": 32,
          "material": 8,
          "mode": 4
        }
      ]
    },
    {
      "name": "Object_10",
      "primitives": [
        {
          "attributes": {
            "NORMAL": 34,
            "POSITION": 33,
            "TEXCOORD_0": 35
          },
          "indices": 36,
          "material": 9,
          "mode": 4
        }
      ]
    },
    {
      "name": "Object_11",
      "primitives": [
        {
          "attributes": {
            "NORMAL": 38,
            "POSITION": 37,
            "TEXCOORD_0": 39
          },
          "indices": 40,
          "material": 10,
          "mode": 4
        }
      ]
    }
  ],
  "nodes": [
    {
      "children": [
        1
      ],
      "matrix": [
        1.0,
        0.0,
        0.0,
        0.0,
        0.0,
        2.220446049250313e-16,
        -1.0,
        0.0,
        0.0,
        1.0,
        2.220446049250313e-16,
        0.0,
        0.0,
        0.0,
        0.0,
        1.0
      ],
      "name": "Sketchfab_model"
    },
    {
      "children": [
        2,
        3,
        4,
        5,
        6,
        7,
        8,
        9,
        10,
        11,
        12,
        13
      ],
      "name": "parque.obj.cleaner.materialmerger.gles"
    },
    {
      "mesh": 0,
      "name": "Object_2"
    },
    {
      "mesh": 1,
      "name": "Object_3"
    },
    {
      "mesh": 2,
      "name": "Object_4"
    },
    {
      "mesh": 3,
      "name": "Object_5"
    },
    {
      "mesh": 4,
      "name": "Object_6"
    },
    {
      "mesh": 5,
      "name": "Object_7"
    },
    {
      "mesh": 6,
      "name": "Object_8"
    },
    {
      "mesh": 7,
      "name": "Object_9"
    },
    {
      "mesh": 8,
      "name": "Object_10"
    },
    {
      "mesh": 9,
      "name": "Object_11"
    },
    {
      "mesh": 10,
      "name": "Object_12"
    },
    {
      "mesh": 11,
      "name": "Object_13"
    }
  ],
  "samplers": [
    {
      "magFilter": 9729,
      "minFilter": 9987,
      "wrapS": 10497,
      "wrapT": 10497
    }
  ],
  "scene": 0,
  "scenes": [
    {
      "name": "Sketchfab_Scene",
      "nodes": [
        0
      ]
    }
  ],
  "textures": [
    {
      "sampler": 0,
      "source": 0
    },
    {
      "sampler": 0,
      "source": 1
    },
    {
      "sampler": 0,
      "source": 2
    }
  ]
}
